PathFileType	4	(X/Y/Z)	C:\Users\WrightLab\Desktop\Jo\P1_boxCal31.trc
DataRate	CameraRate	NumFrames	NumMarkers	Units	OrigDataRate	OrigDataStartFrame	OrigNumFrames
100.00	100.00	       45	19	mm	100.00	648	       740
Frame#	Time	Headset_Front			Headset_Back			Headset_Left			Headset_Right			Left_Shoulder			Right_Shoulder			Sternum			C7			Left Elbow			Right Elbow			Left Wrist			Right Wrist			Left ASIS			Right ASIS			S2			Left Knee			Right Knee			Left Ankle			Right Ankle			
		X1	Y1	Z1	X2	Y2	Z2	X3	Y3	Z3	X4	Y4	Z4	X5	Y5	Z5	X6	Y6	Z6	X7	Y7	Z7	X8	Y8	Z8	X9	Y9	Z9	X10	Y10	Z10	X11	Y11	Z11	X12	Y12	Z12	X13	Y13	Z13	X14	Y14	Z14	X15	Y15	Z15	X16	Y16	Z16	X17	Y17	Z17	X18	Y18	Z18	X19	Y19	Z19	

648	6.470																																		-110.92731	845.51025	2246.34326													-245.94211	518.22699	2363.47070	-529.71594	174.60437	2566.28101				
649	6.480																																		-106.20456	845.14972	2256.98730													-245.14429	517.52850	2364.50049	-534.13239	173.39842	2565.20996				
650	6.490																																		-101.44480	843.69482	2268.63965													-242.99657	516.50323	2369.47412	-538.28027	172.91855	2564.49634				
651	6.500																																		-96.74624	842.83167	2279.77832													-242.61174	515.64636	2370.89136	-541.79382	173.55161	2564.93237				
652	6.510																																		-93.13226	842.68414	2289.01587													-241.55634	514.22998	2377.07983	-544.77362	174.46214	2565.57861				
653	6.520																																		-88.33833	841.49139	2299.92896													-242.56183	513.18042	2379.81250	-547.05487	172.64883	2563.22070				
654	6.530																																		-84.18420	841.33368	2310.88086													-243.98112	512.10925	2383.11914	-549.11853	173.58984	2563.72729				
655	6.540																																		-81.04073	841.77960	2320.21289													-245.05606	511.51349	2388.76563							
656	6.550																																		-76.38101	842.14752	2331.34106													-246.54080	511.91830	2394.39893							
657	6.560																																		-73.97329	843.29736	2339.34692													-248.26666	512.42035	2398.16162							
658	6.570																																		-69.93349	844.46790	2349.26758													-249.55705	513.12762	2401.65698							
659	6.580																																		-67.20084	845.81427	2357.25879													-249.85588	513.69775	2404.10156							
660	6.590																																		-65.14905	849.90155	2365.69385													-248.79214	514.77234	2409.16455							
661	6.600																																		-63.01903	852.29584	2373.42554													-248.89398	514.96484	2410.56396							
662	6.610																																		-61.70869	853.85986	2380.64917													-249.05002	515.53009	2413.15552							
663	6.620																																		-60.23221	856.28009	2387.83374													-248.01454	515.83905	2418.25439							
664	6.630																																		-58.74249	857.91492	2394.73022													-248.32062	516.10327	2420.80151							
665	6.640																																		-57.54108	859.14331	2401.38110													-248.34262	515.77051	2422.10425							
666	6.650																																		-56.95329	859.64728	2407.78027													-246.91144	515.06427	2427.15063							
667	6.660																																		-56.36566	860.07977	2415.13647													-247.14752	514.50366	2429.16284							
668	6.670																																		-55.27527	859.91638	2422.88086													-247.24828	514.54285	2430.51440							
669	6.680																																		-55.21964	858.79193	2427.54004													-245.80836	514.46149	2435.09961							
670	6.690																																		-55.11311	857.64557	2433.08716													-245.34387	514.27063	2439.52246							
671	6.700																																		-54.73928	856.23816	2439.26440													-245.01010	513.44232	2442.02148							
672	6.710																																		-55.14245	854.98346	2444.91821													-244.20467	512.32495	2444.35791							
673	6.720																																		-55.43431	853.25854	2450.06665													-243.68040	511.04288	2446.76416							
674	6.730																																		-56.42005	849.83392	2453.19482													-242.86131	509.91354	2451.10254							
675	6.740																																		-56.70945	847.72711	2457.88916													-242.70071	508.50708	2453.58813							
676	6.750																																		-56.80354	847.53467	2464.02368													-241.84650	508.34863	2457.00781							
677	6.760																																		-59.22569	846.23602	2468.58691													-240.93369	507.23712	2459.77417							
678	6.770																																		-61.30873	843.03864	2470.11816													-240.41301	508.03360	2462.56958							
679	6.780																																		-63.64953	842.23639	2474.12622													-239.92348	507.88855	2464.55908							
680	6.790																																		-66.18504	841.30768	2477.62622													-238.62651	509.16705	2467.32349							
681	6.800																																		-68.94212	840.36499	2480.42847													-237.78839	509.45895	2467.56787							
682	6.810																																		-71.64379	840.02747	2483.30054													-237.19182	509.98807	2467.41040							
683	6.820																																		-74.59491	840.31274	2486.42969													-235.95842	510.37909	2470.24634							
684	6.830																																		-77.54896	840.00897	2488.27686													-234.61169	509.92084	2471.66357							
685	6.840																																		-80.58330	839.22095	2489.19946													-234.54556	509.93460	2472.16870							
686	6.850																																		-83.50909	839.62732	2490.57007													-234.45920	509.97925	2472.41406							
687	6.860																																		-86.56509	838.83087	2490.80273													-234.41290	510.05679	2472.83130							
688	6.870																																		-89.09998	838.61353	2491.43726													-234.15228	511.12045	2475.09204							
689	6.880																																		-91.82658	837.57056	2490.65112													-233.94365	510.88434	2476.90332							
690	6.890																																		-93.85791	836.80554	2489.96851													-234.04317	511.53021	2479.21362							
691	6.900																																		-96.27577	835.45062	2488.31128													-234.35925	511.29279	2480.10474							
692	6.910																																		-97.59108	834.47028	2486.99536													-234.21637	511.26495	2482.07544							
